<svg width="774" height="515" viewBox="0 0 774 515" fill="none" xmlns="http://www.w3.org/2000/svg">
<path d="M346.8 160.133C312.533 164.533 288 186 279.333 219.333C275.6 233.733 274 255.733 275.733 272.267C277.6 290.667 280 300.4 286 313.067C296.533 335.333 319.6 351.2 345.733 354.133L353.067 355V334.8V313.067L343.333 311.333C330.667 307.2 324 300.133 319.733 286.533C317.067 278.133 316.667 273.867 316.667 257.333C316.667 232.133 319.6 221.6 329.067 212.133C340 201.2 341.867 200.933 393.733 200.267L438.667 199.867V179.2V158.667L397.067 158.8C374.133 158.933 351.467 159.467 346.8 160.133Z" fill="white"/>
<path d="M454.666 224.4C454.666 299.867 454.666 301.145 445.2 308C437.467 313.6 429.733 314.667 398.667 314.667H370.667V335.333V356L402.4 355.2C448.8 354.133 461.2 351.2 475.733 338C483.866 330.667 488.533 323.333 492.4 311.6C495.066 303.733 495.2 300.267 495.733 230.933V109.5L475.733 133L454.666 157V224.4Z" fill="white"/>
<ellipse cx="355.5" cy="230.5" rx="13.5" ry="14.5" fill="white"/>
<ellipse cx="355.5" cy="249.5" rx="13.5" ry="14.5" fill="white"/>
<rect x="342" y="230" width="27" height="20" fill="white"/>
<ellipse cx="419.5" cy="230.5" rx="13.5" ry="14.5" fill="white"/>
<ellipse cx="419.5" cy="249.5" rx="13.5" ry="14.5" fill="white"/>
<rect x="406" y="230" width="27" height="20" fill="white"/>
</svg>
