<svg width="221" height="247" viewBox="0 0 221 247" fill="none" xmlns="http://www.w3.org/2000/svg">
<path d="M71.8 51.1333C37.5333 55.5333 13 77 4.33333 110.333C0.600001 124.733 -0.999999 146.733 0.733335 163.267C2.6 181.667 5 191.4 11 204.067C21.5333 226.333 44.6 242.2 70.7333 245.133L78.0667 246V225.8V204.067L68.3333 202.333C55.6667 198.2 49 191.133 44.7333 177.533C42.0667 169.133 41.6667 164.867 41.6667 148.333C41.6667 123.133 44.6 112.6 54.0667 103.133C65 92.2 66.8667 91.9333 118.733 91.2667L163.667 90.8667V70.2V49.6667L122.067 49.8C99.1333 49.9333 76.4667 50.4666 71.8 51.1333Z" fill="black"/>
<path d="M179.666 115.4C179.666 190.867 179.666 192.145 170.2 199C162.467 204.6 154.733 205.667 123.667 205.667H95.6667V226.333V247L127.4 246.2C173.8 245.133 186.2 242.2 200.733 229C208.866 221.667 213.533 214.333 217.4 202.6C220.066 194.733 220.2 191.267 220.733 121.933V0.5L200.733 24L179.666 48V115.4Z" fill="black"/>
<ellipse cx="80.5" cy="121.5" rx="13.5" ry="14.5" fill="black"/>
<ellipse cx="80.5" cy="140.5" rx="13.5" ry="14.5" fill="black"/>
<rect x="67" y="121" width="27" height="20" fill="black"/>
<ellipse cx="144.5" cy="121.5" rx="13.5" ry="14.5" fill="black"/>
<ellipse cx="144.5" cy="140.5" rx="13.5" ry="14.5" fill="black"/>
<rect x="131" y="121" width="27" height="20" fill="black"/>
</svg>
